<?xml version="1.0" encoding="UTF-8" standalone="no"?>
<!DOCTYPE svg PUBLIC "-//W3C//DTD SVG 1.1//EN" "http://www.w3.org/Graphics/SVG/1.1/DTD/svg11.dtd">
<svg xmlns="http://www.w3.org/2000/svg" version="1.1" viewBox="0.00 0.00 359.00 110.00">
<path fill="#5fc4e8" d="
  M 39.18 20.77
  Q 28.26 20.69 14.53 20.79
  C 10.87 20.82 7.85 19.01 7.88 14.99
  C 7.90 11.19 10.50 9.11 14.05 9.11
  Q 64.87 9.02 78.84 9.16
  Q 81.00 9.19 82.54 10.78
  C 85.10 13.43 84.49 18.22 81.33 19.95
  Q 79.61 20.89 76.40 20.83
  Q 63.80 20.60 52.68 20.85
  A 0.37 0.37 0.0 0 0 52.32 21.22
  Q 52.30 59.44 52.30 97.06
  C 52.30 101.66 48.31 104.79 43.93 103.23
  Q 39.79 101.77 39.78 96.87
  Q 39.73 58.88 39.80 21.40
  Q 39.80 20.78 39.18 20.77
  Z"
/>
<path fill="#5fc4e8" d="
  M 136.47 56.86
  A 0.57 0.57 0.0 0 0 137.43 56.86
  Q 151.80 34.29 165.62 12.56
  C 168.48 8.05 175.63 7.75 176.56 13.97
  Q 176.95 16.53 175.51 18.77
  Q 158.98 44.45 143.26 68.50
  A 2.25 2.22 -28.3 0 0 142.90 69.68
  Q 142.86 83.52 142.87 97.06
  C 142.88 103.93 133.63 106.48 130.94 99.74
  Q 130.29 98.10 130.31 95.36
  Q 130.42 81.65 130.28 69.46
  Q 130.28 69.04 130.06 68.70
  Q 114.51 44.25 98.53 19.67
  Q 96.75 16.94 96.79 15.07
  C 96.90 9.90 103.90 6.94 107.10 10.95
  Q 109.05 13.40 110.71 16.04
  Q 123.99 37.13 136.47 56.86
  Z"
/>
<path fill="#5fc4e8" d="
  M 211.89 21.90
  Q 211.87 60.46 211.88 97.21
  C 211.88 105.90 199.79 106.03 199.78 97.15
  Q 199.74 57.40 199.78 15.50
  C 199.78 11.61 202.78 9.15 206.55 9.13
  Q 219.95 9.02 229.93 9.19
  Q 242.57 9.40 251.32 18.94
  C 261.01 29.50 261.36 45.73 252.53 56.61
  Q 248.01 62.19 241.78 65.08
  A 0.70 0.70 0.0 0 0 241.50 66.12
  Q 248.57 76.38 255.14 85.96
  Q 256.84 88.43 258.72 90.94
  C 260.33 93.10 262.70 96.26 262.02 99.02
  C 261.10 102.74 257.13 105.11 253.67 103.29
  Q 251.93 102.37 249.55 98.93
  Q 238.95 83.60 227.69 67.54
  Q 225.34 64.19 225.12 62.47
  Q 224.72 59.21 227.80 56.71
  Q 228.64 56.03 231.39 55.65
  Q 233.36 55.37 235.04 54.81
  C 246.12 51.12 250.18 38.34 243.69 28.72
  C 239.84 23.02 234.21 21.04 227.25 21.18
  Q 219.29 21.34 212.63 21.18
  Q 211.89 21.16 211.89 21.90
  Z"
/>
<path fill="#5fc4e8" d="
  M 328.60 65.11
  A 0.69 0.69 0.0 0 0 328.31 66.13
  Q 337.42 79.36 347.02 93.07
  Q 348.52 95.22 348.89 97.09
  C 349.77 101.63 344.54 105.31 340.52 103.36
  Q 338.93 102.58 336.63 99.29
  Q 324.61 82.06 312.80 64.96
  Q 311.19 62.62 312.21 60.00
  C 313.42 56.92 315.71 55.99 318.71 55.57
  C 329.80 54.01 336.04 43.34 332.66 32.90
  Q 330.93 27.53 325.56 23.90
  Q 321.56 21.19 316.41 21.22
  Q 308.09 21.27 299.31 21.23
  A 0.53 0.53 0.0 0 0 298.77 21.76
  Q 298.77 59.52 298.75 97.24
  Q 298.75 99.92 296.85 101.96
  Q 294.76 104.20 292.12 103.76
  Q 286.66 102.86 286.65 96.96
  Q 286.62 57.32 286.69 15.33
  C 286.69 11.03 290.17 8.95 294.04 9.02
  Q 303.70 9.21 314.31 9.04
  Q 326.20 8.86 334.54 15.50
  Q 341.76 21.26 344.42 30.07
  Q 347.06 38.83 344.26 47.67
  C 341.88 55.15 335.78 61.87 328.60 65.11
  Z"
/>
</svg>
